<svg xmlns="http://www.w3.org/2000/svg" xmlns:xlink="http://www.w3.org/1999/xlink" width="1920" height="1080" viewBox="0 0 1920 1080">
  <defs>
    <clipPath id="clip-Logo_ecriture_bleu_sans_fond">
      <rect width="1920" height="1080"/>
    </clipPath>
  </defs>
  <g id="Logo_ecriture_bleu_sans_fond" clip-path="url(#clip-Logo_ecriture_bleu_sans_fond)">
    <g id="Logo_Wouigo_écriture_" data-name="Logo Wouigo (écriture)" transform="translate(4 176)">
      <g id="Lettre_W" data-name="Lettre W" transform="translate(0 97)">
        <path id="Lettre_W-2" data-name="Lettre W" d="M257.189-2588.442c-11.914-31.406-43.83-53.172-80.093-53.172-40.3,0-75.357,27-83.348,64.191l-.459-.309A48.09,48.09,0,0,1,48.068-2546,48.068,48.068,0,0,1,0-2594.068v-256.864A48.068,48.068,0,0,1,48.068-2899a48.068,48.068,0,0,1,48.068,48.068v130.682q4.189-1.907,8.465-3.612a194.578,194.578,0,0,1,25.582-8.187v-18.883A48.068,48.068,0,0,1,178.252-2799a48.068,48.068,0,0,1,48.068,48.068v19.194a194.494,194.494,0,0,1,24.332,7.876q3.127,1.246,6.211,2.6v-129.673A48.068,48.068,0,0,1,304.932-2899,48.068,48.068,0,0,1,353-2850.932v256.864A48.068,48.068,0,0,1,304.932-2546,48.078,48.078,0,0,1,257.189-2588.442Z" transform="translate(0 2899)" fill="#38b6ff" stroke="#fff" stroke-width="1"/>
      </g>
      <g id="Lettre_O" data-name="Lettre O" transform="translate(365 99)">
        <g id="Soustraction_2" data-name="Soustraction 2" fill="#38b6ff">
          <path d="M 176.4999084472656 352.4998168945313 C 164.5583190917969 352.4998168945313 152.624267578125 351.2967834472656 141.0293121337891 348.9241333007813 C 129.7291870117188 346.6117858886719 118.6141815185547 343.1614685058594 107.9929962158203 338.6690368652344 C 97.56440734863281 334.2580871582031 87.50595092773438 328.7985534667969 78.09709167480469 322.4420471191406 C 68.77763366699219 316.1459655761719 60.01381683349609 308.9151916503906 52.0491828918457 300.9506225585938 C 44.08463668823242 292.9859924316406 36.85386276245117 284.22216796875 30.55777168273926 274.9027404785156 C 24.20127296447754 265.4938659667969 18.74172592163086 255.4354095458984 14.33077239990234 245.0068206787109 C 9.838362693786621 234.3856353759766 6.388044834136963 223.2706298828125 4.075681209564209 211.9705047607422 C 1.703044772148132 200.3755493164063 0.4999993443489075 188.4414978027344 0.4999993443489075 176.4999084472656 C 0.4999993443489075 164.5583190917969 1.703044772148132 152.624267578125 4.075681209564209 141.0293121337891 C 6.388044834136963 129.7291870117188 9.838362693786621 118.6141815185547 14.33077239990234 107.9929962158203 C 18.74172592163086 97.56440734863281 24.20127296447754 87.50595092773438 30.55777168273926 78.09709167480469 C 36.85386276245117 68.77763366699219 44.08463668823242 60.01381683349609 52.0491828918457 52.0491828918457 C 60.01381683349609 44.08463668823242 68.77763366699219 36.85386276245117 78.09709167480469 30.55777168273926 C 87.50595092773438 24.20127296447754 97.56440734863281 18.74172592163086 107.9929962158203 14.33077239990234 C 118.6141815185547 9.838362693786621 129.7291870117188 6.388044834136963 141.0293121337891 4.075681209564209 C 152.624267578125 1.703044772148132 164.5583190917969 0.4999993443489075 176.4999084472656 0.4999993443489075 C 188.4414978027344 0.4999993443489075 200.3755493164063 1.703044772148132 211.9705047607422 4.075681209564209 C 223.2706298828125 6.388044834136963 234.3856353759766 9.838362693786621 245.0068206787109 14.33077239990234 C 255.4354095458984 18.74172592163086 265.4938659667969 24.20127296447754 274.9027404785156 30.55777168273926 C 284.22216796875 36.85386276245117 292.9859924316406 44.08463668823242 300.9506225585938 52.0491828918457 C 308.9151916503906 60.01381683349609 316.1459655761719 68.77763366699219 322.4420471191406 78.09709167480469 C 328.7985534667969 87.50595092773438 334.2580871582031 97.56440734863281 338.6690368652344 107.9929962158203 C 343.1614685058594 118.6141815185547 346.6117858886719 129.7291870117188 348.9241333007813 141.0293121337891 C 351.2967834472656 152.624267578125 352.4998168945313 164.5583190917969 352.4998168945313 176.4999084472656 C 352.4998168945313 188.4414978027344 351.2967834472656 200.3755493164063 348.9241333007813 211.9705047607422 C 346.6117858886719 223.2706298828125 343.1614685058594 234.3856353759766 338.6690368652344 245.0068206787109 C 334.2580871582031 255.4354095458984 328.7985534667969 265.4938659667969 322.4420471191406 274.9027404785156 C 316.1459655761719 284.22216796875 308.9151916503906 292.9859924316406 300.9506225585938 300.9506225585938 C 292.9859924316406 308.9151916503906 284.22216796875 316.1459655761719 274.9027404785156 322.4420471191406 C 265.4938659667969 328.7985534667969 255.4354095458984 334.2580871582031 245.0068206787109 338.6690368652344 C 234.3856353759766 343.1614685058594 223.2706298828125 346.6117858886719 211.9705047607422 348.9241333007813 C 200.3755493164063 351.2967834472656 188.4414978027344 352.4998168945313 176.4999084472656 352.4998168945313 Z M 177.0003204345703 95.50032043457031 C 132.6124114990234 95.50032043457031 96.50022888183594 131.6125030517578 96.50022888183594 176.0004119873047 C 96.50022888183594 220.3878173828125 132.6124114990234 256.4996032714844 177.0003204345703 256.4996032714844 C 221.3882293701172 256.4996032714844 257.5003967285156 220.3878173828125 257.5003967285156 176.0004119873047 C 257.5003967285156 131.6125030517578 221.3882293701172 95.50032043457031 177.0003204345703 95.50032043457031 Z" stroke="none"/>
          <path d="M 176.4999084472656 351.9998168945313 C 188.4079132080078 351.9998168945313 200.3082275390625 350.8002319335938 211.8702239990234 348.434326171875 C 223.1380462646484 346.1285400390625 234.2212677001953 342.6880798339844 244.8120422363281 338.2085571289063 C 255.2109069824219 333.8101806640625 265.24072265625 328.3661804199219 274.622802734375 322.0277404785156 C 283.9158935546875 315.7494506835938 292.6549072265625 308.5391235351563 300.5970764160156 300.5970764160156 C 308.5391235351563 292.6549072265625 315.7494506835938 283.9158935546875 322.0277404785156 274.622802734375 C 328.3661804199219 265.24072265625 333.8101806640625 255.2109069824219 338.2085571289063 244.8120422363281 C 342.6880798339844 234.2212677001953 346.1285400390625 223.1380462646484 348.434326171875 211.8702697753906 C 350.8002319335938 200.3082275390625 351.9998168945313 188.4079132080078 351.9998168945313 176.4999084472656 C 351.9998168945313 164.5919036865234 350.8002319335938 152.6915893554688 348.434326171875 141.1295928955078 C 346.1285400390625 129.8617706298828 342.6880798339844 118.7785415649414 338.2085571289063 108.1877746582031 C 333.8101806640625 97.78890991210938 328.3661804199219 87.75908660888672 322.0277404785156 78.37699890136719 C 315.7494506835938 69.08390808105469 308.5391235351563 60.34490966796875 300.5970764160156 52.40272521972656 C 292.6549072265625 44.4606819152832 283.9158935546875 37.25036239624023 274.622802734375 30.97208976745605 C 265.24072265625 24.63363647460938 255.2109069824219 19.18963623046875 244.8120422363281 14.79127216339111 C 234.2212677001953 10.31172657012939 223.1380462646484 6.871272087097168 211.8702697753906 4.565499305725098 C 200.3082275390625 2.19959020614624 188.4079132080078 0.9999993443489075 176.4999084472656 0.9999993443489075 C 164.5919036865234 0.9999993443489075 152.6915893554688 2.19959020614624 141.1295928955078 4.565499305725098 C 129.8617706298828 6.871272087097168 118.7785415649414 10.31172657012939 108.1877746582031 14.79127216339111 C 97.78890991210938 19.18963623046875 87.75908660888672 24.63363647460938 78.37699890136719 30.97208976745605 C 69.08390808105469 37.25036239624023 60.34490966796875 44.4606819152832 52.40272521972656 52.40272521972656 C 44.4606819152832 60.34490966796875 37.25036239624023 69.08390808105469 30.97208976745605 78.37699890136719 C 24.63363647460938 87.75908660888672 19.18963623046875 97.78890991210938 14.79127216339111 108.1877746582031 C 10.31172657012939 118.7785415649414 6.871272087097168 129.8617706298828 4.565499305725098 141.1295471191406 C 2.19959020614624 152.6915893554688 0.9999993443489075 164.5919036865234 0.9999993443489075 176.4999084472656 C 0.9999993443489075 188.4079132080078 2.19959020614624 200.3082275390625 4.565499305725098 211.8702239990234 C 6.871272087097168 223.1380462646484 10.31172657012939 234.2212677001953 14.79127216339111 244.8120422363281 C 19.18963623046875 255.2109069824219 24.63363647460938 265.24072265625 30.97208976745605 274.622802734375 C 37.25036239624023 283.9158935546875 44.4606819152832 292.6549072265625 52.40272521972656 300.5970764160156 C 60.34490966796875 308.5391235351563 69.08390808105469 315.7494506835938 78.37699890136719 322.0277404785156 C 87.75908660888672 328.3661804199219 97.78890991210938 333.8101806640625 108.1877746582031 338.2085571289063 C 118.7785415649414 342.6880798339844 129.8617706298828 346.1285400390625 141.1295471191406 348.434326171875 C 152.6915893554688 350.8002319335938 164.5919036865234 351.9998168945313 176.4999084472656 351.9998168945313 M 177.0003204345703 95.00032043457031 C 221.6639099121094 95.00032043457031 258.0003967285156 131.3368225097656 258.0003967285156 176.0004119873047 C 258.0003967285156 220.6634979248047 221.6639099121094 256.9996032714844 177.0003204345703 256.9996032714844 C 132.3367309570313 256.9996032714844 96.00022888183594 220.6634979248047 96.00022888183594 176.0004119873047 C 96.00022888183594 131.3368225097656 132.3367309570313 95.00032043457031 177.0003204345703 95.00032043457031 M 176.4999084472656 352.9998168945313 C 164.5246887207031 352.9998168945313 152.5569152832031 351.7933654785156 140.9290924072266 349.4140014648438 C 129.5966339111328 347.0950012207031 118.4498138427734 343.6348266601563 107.798225402832 339.1295471191406 C 97.33990478515625 334.7060546875 87.25281524658203 329.23095703125 77.81718444824219 322.8563537597656 C 68.47122955322266 316.5423583984375 59.68268203735352 309.2911376953125 51.69563674926758 301.3041687011719 C 43.70868301391602 293.317138671875 36.45745468139648 284.5285949707031 30.14345359802246 275.1826477050781 C 23.76886367797852 265.7470092773438 18.29377174377441 255.659912109375 13.87027168273926 245.2015838623047 C 9.364999771118164 234.5500030517578 5.904817581176758 223.4031829833984 3.585817575454712 212.0707244873047 C 1.206453919410706 200.4429016113281 -6.436434887291398e-07 188.4751281738281 -6.436434887291398e-07 176.4999084472656 C -6.436434887291398e-07 164.5246887207031 1.206453919410706 152.5569152832031 3.585817575454712 140.9290924072266 C 5.904817581176758 129.5966339111328 9.364999771118164 118.4498138427734 13.87027168273926 107.798225402832 C 18.29377174377441 97.33990478515625 23.76886367797852 87.25281524658203 30.14345359802246 77.81718444824219 C 36.45745468139648 68.47122955322266 43.70868301391602 59.68268203735352 51.69563674926758 51.69563674926758 C 59.68268203735352 43.70868301391602 68.47122955322266 36.45745468139648 77.81718444824219 30.14345359802246 C 87.25281524658203 23.76886367797852 97.33990478515625 18.29377174377441 107.798225402832 13.87027168273926 C 118.4498138427734 9.364999771118164 129.5966339111328 5.904817581176758 140.9290924072266 3.585817575454712 C 152.5569152832031 1.206453919410706 164.5246887207031 -6.436434887291398e-07 176.4999084472656 -6.436434887291398e-07 C 188.4751281738281 -6.436434887291398e-07 200.4429016113281 1.206453919410706 212.0707244873047 3.585817575454712 C 223.4031829833984 5.904817581176758 234.5500030517578 9.364999771118164 245.2015838623047 13.87027168273926 C 255.659912109375 18.29377174377441 265.7470092773438 23.76886367797852 275.1826477050781 30.14345359802246 C 284.5285949707031 36.45745468139648 293.317138671875 43.70868301391602 301.3041687011719 51.69563674926758 C 309.2911376953125 59.68268203735352 316.5423583984375 68.47122955322266 322.8563537597656 77.81718444824219 C 329.23095703125 87.25281524658203 334.7060546875 97.33990478515625 339.1295471191406 107.798225402832 C 343.6348266601563 118.4498138427734 347.0950012207031 129.5966339111328 349.4140014648438 140.9290924072266 C 351.7933654785156 152.5569152832031 352.9998168945313 164.5246887207031 352.9998168945313 176.4999084472656 C 352.9998168945313 188.4751281738281 351.7933654785156 200.4429016113281 349.4140014648438 212.0707244873047 C 347.0950012207031 223.4031829833984 343.6348266601563 234.5500030517578 339.1295471191406 245.2015838623047 C 334.7060546875 255.659912109375 329.23095703125 265.7470092773438 322.8563537597656 275.1826477050781 C 316.5423583984375 284.5285949707031 309.2911376953125 293.317138671875 301.3041687011719 301.3041687011719 C 293.317138671875 309.2911376953125 284.5285949707031 316.5423583984375 275.1826477050781 322.8563537597656 C 265.7470092773438 329.23095703125 255.659912109375 334.7060546875 245.2015838623047 339.1295471191406 C 234.5500030517578 343.6348266601563 223.4031829833984 347.0950012207031 212.0707244873047 349.4140014648438 C 200.4429016113281 351.7933654785156 188.4751281738281 352.9998168945313 176.4999084472656 352.9998168945313 Z M 177.0003204345703 96.00032043457031 C 132.8881378173828 96.00032043457031 97.00022888183594 131.8882293701172 97.00022888183594 176.0004119873047 C 97.00022888183594 220.1120910644531 132.8881378173828 255.9995880126953 177.0003204345703 255.9995880126953 C 221.1125030517578 255.9995880126953 257.0003967285156 220.1120910644531 257.0003967285156 176.0004119873047 C 257.0003967285156 131.8882293701172 221.1125030517578 96.00032043457031 177.0003204345703 96.00032043457031 Z" stroke="none" fill="#fff"/>
        </g>
      </g>
      <g id="lettre_U" data-name="lettre U" transform="translate(728 99)">
        <path id="lettre_U-2" data-name="lettre U" d="M140.929-2578.59a175.589,175.589,0,0,1-33.132-10.3,176.452,176.452,0,0,1-29.981-16.3A177.931,177.931,0,0,1,51.7-2626.768a178.019,178.019,0,0,1-21.552-26.158,176.858,176.858,0,0,1-16.273-30.023,176.076,176.076,0,0,1-10.284-33.178A178.239,178.239,0,0,1,0-2750.749H0V-2880a48,48,0,0,1,48-48,48,48,0,0,1,48,48v128.25h0c0,.167,0,.334,0,.5a80.147,80.147,0,0,0,80,80.114,80.147,80.147,0,0,0,80-80.114c0-.167,0-.333,0-.5h.5V-2880a48,48,0,0,1,48-48,48,48,0,0,1,48,48v128.25h.5a178.3,178.3,0,0,1-3.587,35.623,176.059,176.059,0,0,1-10.284,33.178,176.858,176.858,0,0,1-16.273,30.023,178.018,178.018,0,0,1-21.552,26.158,177.932,177.932,0,0,1-26.122,21.582,176.453,176.453,0,0,1-29.981,16.3,175.478,175.478,0,0,1-33.131,10.3A177.578,177.578,0,0,1,176.5-2575,177.578,177.578,0,0,1,140.929-2578.59Z" transform="translate(0 2928)" fill="#38b6ff" stroke="#fff" stroke-width="1"/>
      </g>
      <g id="Lettre_I" data-name="Lettre I" transform="translate(1091)">
        <g id="Lettre_I-2" data-name="Lettre I" transform="translate(0 99)" fill="#38b6ff" stroke="#fff" stroke-width="1" opacity="0.96">
          <rect width="96" height="353" rx="48" stroke="none"/>
          <rect x="0.5" y="0.5" width="95" height="352" rx="47.5" fill="none"/>
        </g>
        <rect id="Point_sur_i" data-name="Point sur i" width="96" height="97.25" rx="48" fill="#38b6ff" stroke="#fff" stroke-width="1"/>
      </g>
      <g id="Lettre_G" data-name="Lettre G" transform="translate(1197 99)">
        <path id="Lettre_G-2" data-name="Lettre G" d="M246.452-2303.667a49,49,0,0,1-22.561-65.522l2.631-5.393a49.321,49.321,0,0,1,3.923-6.667,79.818,79.818,0,0,0,4.418-49.521,79.578,79.578,0,0,0-73.061-61.879c-16.761,7.464-38.058,3.552-52.88-11.248-18.759-18.732-20.04-47.812-2.861-64.952l15.053-15.019q-6.761-2.232-13.315-5a176.483,176.483,0,0,1-29.981-16.273A177.731,177.731,0,0,1,51.7-2626.7a177.646,177.646,0,0,1-21.552-26.122A176.518,176.518,0,0,1,13.87-2682.8a175.7,175.7,0,0,1-10.284-33.131A177.852,177.852,0,0,1,0-2751.5a177.847,177.847,0,0,1,3.586-35.571A175.684,175.684,0,0,1,13.87-2820.2a176.5,176.5,0,0,1,16.274-29.982A177.76,177.76,0,0,1,51.7-2876.3a177.707,177.707,0,0,1,26.122-21.551A176.489,176.489,0,0,1,107.8-2914.13a175.6,175.6,0,0,1,33.131-10.284A177.785,177.785,0,0,1,176.5-2928a177.784,177.784,0,0,1,35.571,3.586A175.6,175.6,0,0,1,245.2-2914.13a176.489,176.489,0,0,1,29.981,16.274A177.707,177.707,0,0,1,301.3-2876.3a177.76,177.76,0,0,1,21.552,26.122A176.5,176.5,0,0,1,339.13-2820.2a175.685,175.685,0,0,1,10.284,33.131A177.78,177.78,0,0,1,353-2751.5a177.785,177.785,0,0,1-3.586,35.571A175.7,175.7,0,0,1,339.13-2682.8a176.518,176.518,0,0,1-16.274,29.981A177.645,177.645,0,0,1,301.3-2626.7a177.729,177.729,0,0,1-14.529,13.012q-.939,1.08-1.967,2.106l-43.779,43.68a177.385,177.385,0,0,1,25.609,16.77,175.8,175.8,0,0,1,39.351,43.211,176,176,0,0,1,23.5,55.816,177.928,177.928,0,0,1,4.443,33.4,175.736,175.736,0,0,1-1.853,32.674,176.345,176.345,0,0,1-7.708,31.236,177.457,177.457,0,0,1-8.479,20.3q-.594,1.444-1.289,2.869l-2.63,5.393A49,49,0,0,1,267.9-2298.7,48.8,48.8,0,0,1,246.452-2303.667ZM97-2751a80.091,80.091,0,0,0,80,80,80.091,80.091,0,0,0,80-80,80.09,80.09,0,0,0-80-80A80.09,80.09,0,0,0,97-2751Z" transform="translate(0 2928)" fill="#38b6ff" stroke="#fff" stroke-width="1"/>
      </g>
      <g id="Lettre_O-2" data-name="Lettre O" transform="translate(1560 99)">
        <g id="Soustraction_2-2" data-name="Soustraction 2" fill="#38b6ff">
          <path d="M 176.4999084472656 352.4998168945313 C 164.5583190917969 352.4998168945313 152.624267578125 351.2967834472656 141.0293121337891 348.9241333007813 C 129.7291870117188 346.6117858886719 118.6141815185547 343.1614685058594 107.9929962158203 338.6690368652344 C 97.56440734863281 334.2580871582031 87.50595092773438 328.7985534667969 78.09709167480469 322.4420471191406 C 68.77763366699219 316.1459655761719 60.01381683349609 308.9151916503906 52.0491828918457 300.9506225585938 C 44.08463668823242 292.9859924316406 36.85386276245117 284.22216796875 30.55777168273926 274.9027404785156 C 24.20127296447754 265.4938659667969 18.74172592163086 255.4354095458984 14.33077239990234 245.0068206787109 C 9.838362693786621 234.3856353759766 6.388044834136963 223.2706298828125 4.075681209564209 211.9705047607422 C 1.703044772148132 200.3755493164063 0.4999993443489075 188.4414978027344 0.4999993443489075 176.4999084472656 C 0.4999993443489075 164.5583190917969 1.703044772148132 152.624267578125 4.075681209564209 141.0293121337891 C 6.388044834136963 129.7291870117188 9.838362693786621 118.6141815185547 14.33077239990234 107.9929962158203 C 18.74172592163086 97.56440734863281 24.20127296447754 87.50595092773438 30.55777168273926 78.09709167480469 C 36.85386276245117 68.77763366699219 44.08463668823242 60.01381683349609 52.0491828918457 52.0491828918457 C 60.01381683349609 44.08463668823242 68.77763366699219 36.85386276245117 78.09709167480469 30.55777168273926 C 87.50595092773438 24.20127296447754 97.56440734863281 18.74172592163086 107.9929962158203 14.33077239990234 C 118.6141815185547 9.838362693786621 129.7291870117188 6.388044834136963 141.0293121337891 4.075681209564209 C 152.624267578125 1.703044772148132 164.5583190917969 0.4999993443489075 176.4999084472656 0.4999993443489075 C 188.4414978027344 0.4999993443489075 200.3755493164063 1.703044772148132 211.9705047607422 4.075681209564209 C 223.2706298828125 6.388044834136963 234.3856353759766 9.838362693786621 245.0068206787109 14.33077239990234 C 255.4354095458984 18.74172592163086 265.4938659667969 24.20127296447754 274.9027404785156 30.55777168273926 C 284.22216796875 36.85386276245117 292.9859924316406 44.08463668823242 300.9506225585938 52.0491828918457 C 308.9151916503906 60.01381683349609 316.1459655761719 68.77763366699219 322.4420471191406 78.09709167480469 C 328.7985534667969 87.50595092773438 334.2580871582031 97.56440734863281 338.6690368652344 107.9929962158203 C 343.1614685058594 118.6141815185547 346.6117858886719 129.7291870117188 348.9241333007813 141.0293121337891 C 351.2967834472656 152.624267578125 352.4998168945313 164.5583190917969 352.4998168945313 176.4999084472656 C 352.4998168945313 188.4414978027344 351.2967834472656 200.3755493164063 348.9241333007813 211.9705047607422 C 346.6117858886719 223.2706298828125 343.1614685058594 234.3856353759766 338.6690368652344 245.0068206787109 C 334.2580871582031 255.4354095458984 328.7985534667969 265.4938659667969 322.4420471191406 274.9027404785156 C 316.1459655761719 284.22216796875 308.9151916503906 292.9859924316406 300.9506225585938 300.9506225585938 C 292.9859924316406 308.9151916503906 284.22216796875 316.1459655761719 274.9027404785156 322.4420471191406 C 265.4938659667969 328.7985534667969 255.4354095458984 334.2580871582031 245.0068206787109 338.6690368652344 C 234.3856353759766 343.1614685058594 223.2706298828125 346.6117858886719 211.9705047607422 348.9241333007813 C 200.3755493164063 351.2967834472656 188.4414978027344 352.4998168945313 176.4999084472656 352.4998168945313 Z M 177.0003204345703 95.50032043457031 C 132.6124114990234 95.50032043457031 96.50022888183594 131.6125030517578 96.50022888183594 176.0004119873047 C 96.50022888183594 220.3878173828125 132.6124114990234 256.4996032714844 177.0003204345703 256.4996032714844 C 221.3882293701172 256.4996032714844 257.5003967285156 220.3878173828125 257.5003967285156 176.0004119873047 C 257.5003967285156 131.6125030517578 221.3882293701172 95.50032043457031 177.0003204345703 95.50032043457031 Z" stroke="none"/>
          <path d="M 176.4999084472656 351.9998168945313 C 188.4079132080078 351.9998168945313 200.3082275390625 350.8002319335938 211.8702239990234 348.434326171875 C 223.1380462646484 346.1285400390625 234.2212677001953 342.6880798339844 244.8120422363281 338.2085571289063 C 255.2109069824219 333.8101806640625 265.24072265625 328.3661804199219 274.622802734375 322.0277404785156 C 283.9158935546875 315.7494506835938 292.6549072265625 308.5391235351563 300.5970764160156 300.5970764160156 C 308.5391235351563 292.6549072265625 315.7494506835938 283.9158935546875 322.0277404785156 274.622802734375 C 328.3661804199219 265.24072265625 333.8101806640625 255.2109069824219 338.2085571289063 244.8120422363281 C 342.6880798339844 234.2212677001953 346.1285400390625 223.1380462646484 348.434326171875 211.8702697753906 C 350.8002319335938 200.3082275390625 351.9998168945313 188.4079132080078 351.9998168945313 176.4999084472656 C 351.9998168945313 164.5919036865234 350.8002319335938 152.6915893554688 348.434326171875 141.1295928955078 C 346.1285400390625 129.8617706298828 342.6880798339844 118.7785415649414 338.2085571289063 108.1877746582031 C 333.8101806640625 97.78890991210938 328.3661804199219 87.75908660888672 322.0277404785156 78.37699890136719 C 315.7494506835938 69.08390808105469 308.5391235351563 60.34490966796875 300.5970764160156 52.40272521972656 C 292.6549072265625 44.4606819152832 283.9158935546875 37.25036239624023 274.622802734375 30.97208976745605 C 265.24072265625 24.63363647460938 255.2109069824219 19.18963623046875 244.8120422363281 14.79127216339111 C 234.2212677001953 10.31172657012939 223.1380462646484 6.871272087097168 211.8702697753906 4.565499305725098 C 200.3082275390625 2.19959020614624 188.4079132080078 0.9999993443489075 176.4999084472656 0.9999993443489075 C 164.5919036865234 0.9999993443489075 152.6915893554688 2.19959020614624 141.1295928955078 4.565499305725098 C 129.8617706298828 6.871272087097168 118.7785415649414 10.31172657012939 108.1877746582031 14.79127216339111 C 97.78890991210938 19.18963623046875 87.75908660888672 24.63363647460938 78.37699890136719 30.97208976745605 C 69.08390808105469 37.25036239624023 60.34490966796875 44.4606819152832 52.40272521972656 52.40272521972656 C 44.4606819152832 60.34490966796875 37.25036239624023 69.08390808105469 30.97208976745605 78.37699890136719 C 24.63363647460938 87.75908660888672 19.18963623046875 97.78890991210938 14.79127216339111 108.1877746582031 C 10.31172657012939 118.7785415649414 6.871272087097168 129.8617706298828 4.565499305725098 141.1295471191406 C 2.19959020614624 152.6915893554688 0.9999993443489075 164.5919036865234 0.9999993443489075 176.4999084472656 C 0.9999993443489075 188.4079132080078 2.19959020614624 200.3082275390625 4.565499305725098 211.8702239990234 C 6.871272087097168 223.1380462646484 10.31172657012939 234.2212677001953 14.79127216339111 244.8120422363281 C 19.18963623046875 255.2109069824219 24.63363647460938 265.24072265625 30.97208976745605 274.622802734375 C 37.25036239624023 283.9158935546875 44.4606819152832 292.6549072265625 52.40272521972656 300.5970764160156 C 60.34490966796875 308.5391235351563 69.08390808105469 315.7494506835938 78.37699890136719 322.0277404785156 C 87.75908660888672 328.3661804199219 97.78890991210938 333.8101806640625 108.1877746582031 338.2085571289063 C 118.7785415649414 342.6880798339844 129.8617706298828 346.1285400390625 141.1295471191406 348.434326171875 C 152.6915893554688 350.8002319335938 164.5919036865234 351.9998168945313 176.4999084472656 351.9998168945313 M 177.0003204345703 95.00032043457031 C 221.6639099121094 95.00032043457031 258.0003967285156 131.3368225097656 258.0003967285156 176.0004119873047 C 258.0003967285156 220.6634979248047 221.6639099121094 256.9996032714844 177.0003204345703 256.9996032714844 C 132.3367309570313 256.9996032714844 96.00022888183594 220.6634979248047 96.00022888183594 176.0004119873047 C 96.00022888183594 131.3368225097656 132.3367309570313 95.00032043457031 177.0003204345703 95.00032043457031 M 176.4999084472656 352.9998168945313 C 164.5246887207031 352.9998168945313 152.5569152832031 351.7933654785156 140.9290924072266 349.4140014648438 C 129.5966339111328 347.0950012207031 118.4498138427734 343.6348266601563 107.798225402832 339.1295471191406 C 97.33990478515625 334.7060546875 87.25281524658203 329.23095703125 77.81718444824219 322.8563537597656 C 68.47122955322266 316.5423583984375 59.68268203735352 309.2911376953125 51.69563674926758 301.3041687011719 C 43.70868301391602 293.317138671875 36.45745468139648 284.5285949707031 30.14345359802246 275.1826477050781 C 23.76886367797852 265.7470092773438 18.29377174377441 255.659912109375 13.87027168273926 245.2015838623047 C 9.364999771118164 234.5500030517578 5.904817581176758 223.4031829833984 3.585817575454712 212.0707244873047 C 1.206453919410706 200.4429016113281 -6.436434887291398e-07 188.4751281738281 -6.436434887291398e-07 176.4999084472656 C -6.436434887291398e-07 164.5246887207031 1.206453919410706 152.5569152832031 3.585817575454712 140.9290924072266 C 5.904817581176758 129.5966339111328 9.364999771118164 118.4498138427734 13.87027168273926 107.798225402832 C 18.29377174377441 97.33990478515625 23.76886367797852 87.25281524658203 30.14345359802246 77.81718444824219 C 36.45745468139648 68.47122955322266 43.70868301391602 59.68268203735352 51.69563674926758 51.69563674926758 C 59.68268203735352 43.70868301391602 68.47122955322266 36.45745468139648 77.81718444824219 30.14345359802246 C 87.25281524658203 23.76886367797852 97.33990478515625 18.29377174377441 107.798225402832 13.87027168273926 C 118.4498138427734 9.364999771118164 129.5966339111328 5.904817581176758 140.9290924072266 3.585817575454712 C 152.5569152832031 1.206453919410706 164.5246887207031 -6.436434887291398e-07 176.4999084472656 -6.436434887291398e-07 C 188.4751281738281 -6.436434887291398e-07 200.4429016113281 1.206453919410706 212.0707244873047 3.585817575454712 C 223.4031829833984 5.904817581176758 234.5500030517578 9.364999771118164 245.2015838623047 13.87027168273926 C 255.659912109375 18.29377174377441 265.7470092773438 23.76886367797852 275.1826477050781 30.14345359802246 C 284.5285949707031 36.45745468139648 293.317138671875 43.70868301391602 301.3041687011719 51.69563674926758 C 309.2911376953125 59.68268203735352 316.5423583984375 68.47122955322266 322.8563537597656 77.81718444824219 C 329.23095703125 87.25281524658203 334.7060546875 97.33990478515625 339.1295471191406 107.798225402832 C 343.6348266601563 118.4498138427734 347.0950012207031 129.5966339111328 349.4140014648438 140.9290924072266 C 351.7933654785156 152.5569152832031 352.9998168945313 164.5246887207031 352.9998168945313 176.4999084472656 C 352.9998168945313 188.4751281738281 351.7933654785156 200.4429016113281 349.4140014648438 212.0707244873047 C 347.0950012207031 223.4031829833984 343.6348266601563 234.5500030517578 339.1295471191406 245.2015838623047 C 334.7060546875 255.659912109375 329.23095703125 265.7470092773438 322.8563537597656 275.1826477050781 C 316.5423583984375 284.5285949707031 309.2911376953125 293.317138671875 301.3041687011719 301.3041687011719 C 293.317138671875 309.2911376953125 284.5285949707031 316.5423583984375 275.1826477050781 322.8563537597656 C 265.7470092773438 329.23095703125 255.659912109375 334.7060546875 245.2015838623047 339.1295471191406 C 234.5500030517578 343.6348266601563 223.4031829833984 347.0950012207031 212.0707244873047 349.4140014648438 C 200.4429016113281 351.7933654785156 188.4751281738281 352.9998168945313 176.4999084472656 352.9998168945313 Z M 177.0003204345703 96.00032043457031 C 132.8881378173828 96.00032043457031 97.00022888183594 131.8882293701172 97.00022888183594 176.0004119873047 C 97.00022888183594 220.1120910644531 132.8881378173828 255.9995880126953 177.0003204345703 255.9995880126953 C 221.1125030517578 255.9995880126953 257.0003967285156 220.1120910644531 257.0003967285156 176.0004119873047 C 257.0003967285156 131.8882293701172 221.1125030517578 96.00032043457031 177.0003204345703 96.00032043457031 Z" stroke="none" fill="#fff"/>
        </g>
      </g>
    </g>
  </g>
</svg>
